<svg width="26" height="26" viewBox="0 0 26 26" fill="none" xmlns="http://www.w3.org/2000/svg">
<path d="M14.2998 0.380859C15.7195 0.384645 16.44 0.392217 17.0621 0.409883L17.3069 0.418716C17.5896 0.428812 17.8685 0.441431 18.2054 0.456574C19.5481 0.519669 20.4642 0.731669 21.268 1.04336C22.1009 1.36388 22.8025 1.79798 23.5041 2.49834C24.1461 3.12895 24.6426 3.89207 24.9591 4.73443C25.2708 5.53826 25.4828 6.45441 25.5459 7.79833C25.561 8.134 25.5737 8.41288 25.5838 8.69681L25.5913 8.94162C25.6103 9.56248 25.6178 10.283 25.6204 11.7027L25.6216 12.644V14.2971C25.6247 15.2176 25.615 16.138 25.5926 17.0582L25.585 17.303C25.5749 17.5869 25.5623 17.8658 25.5472 18.2015C25.4841 19.5454 25.2695 20.4603 24.9591 21.2654C24.6426 22.1077 24.1461 22.8709 23.5041 23.5015C22.8735 24.1434 22.1104 24.6399 21.268 24.9564C20.4642 25.2681 19.5481 25.4801 18.2054 25.5432L17.3069 25.5811L17.0621 25.5887C16.44 25.6063 15.7195 25.6152 14.2998 25.6177L13.3584 25.6189H11.7066C10.7857 25.6222 9.86488 25.6125 8.94429 25.5899L8.69948 25.5824C8.39992 25.571 8.10042 25.558 7.801 25.5432C6.45834 25.4801 5.5422 25.2681 4.7371 24.9564C3.8952 24.6398 3.13252 24.1432 2.50227 23.5015C1.85989 22.871 1.36291 22.1078 1.04603 21.2654C0.73434 20.4615 0.52234 19.5454 0.459244 18.2015L0.421387 17.303L0.415078 17.0582C0.391816 16.138 0.381299 15.2176 0.38353 14.2971V11.7027C0.380037 10.7822 0.389292 9.8618 0.411292 8.94162L0.420126 8.69681C0.430221 8.41288 0.44284 8.134 0.457983 7.79833C0.521078 6.45441 0.733078 5.53952 1.04477 4.73443C1.36238 3.89173 1.86024 3.12858 2.50353 2.49834C3.13341 1.85672 3.89565 1.36019 4.7371 1.04336C5.5422 0.731669 6.45708 0.519669 7.801 0.456574C8.13667 0.441431 8.41681 0.428812 8.69948 0.418716L8.94429 0.411145C9.86446 0.388724 10.7849 0.379049 11.7053 0.382121L14.2998 0.380859ZM13.0026 6.69038C11.3292 6.69038 9.72433 7.35513 8.54107 8.5384C7.3578 9.72166 6.69305 11.3265 6.69305 12.9999C6.69305 14.6733 7.3578 16.2781 8.54107 17.4614C9.72433 18.6447 11.3292 19.3094 13.0026 19.3094C14.676 19.3094 16.2808 18.6447 17.4641 17.4614C18.6473 16.2781 19.3121 14.6733 19.3121 12.9999C19.3121 11.3265 18.6473 9.72166 17.4641 8.5384C16.2808 7.35513 14.676 6.69038 13.0026 6.69038ZM13.0026 9.21419C13.4997 9.21411 13.992 9.31195 14.4514 9.50212C14.9107 9.69229 15.3281 9.97108 15.6797 10.3226C16.0313 10.674 16.3102 11.0913 16.5005 11.5506C16.6908 12.0099 16.7888 12.5021 16.7889 12.9993C16.789 13.4964 16.6912 13.9887 16.501 14.4481C16.3108 14.9074 16.032 15.3248 15.6806 15.6764C15.3291 16.028 14.9118 16.3069 14.4525 16.4972C13.9932 16.6875 13.501 16.7855 13.0038 16.7856C11.9998 16.7856 11.0369 16.3868 10.3269 15.6768C9.61697 14.9668 9.21812 14.0039 9.21812 12.9999C9.21812 11.9959 9.61697 11.033 10.3269 10.323C11.0369 9.61304 11.9998 9.21419 13.0038 9.21419M19.6288 4.79752C19.2105 4.79752 18.8093 4.96371 18.5135 5.25953C18.2176 5.55535 18.0515 5.95656 18.0515 6.37491C18.0515 6.79325 18.2176 7.19447 18.5135 7.49028C18.8093 7.7861 19.2105 7.95229 19.6288 7.95229C20.0472 7.95229 20.4484 7.7861 20.7442 7.49028C21.04 7.19447 21.2062 6.79325 21.2062 6.37491C21.2062 5.95656 21.04 5.55535 20.7442 5.25953C20.4484 4.96371 20.0472 4.79752 19.6288 4.79752Z" fill="#1E1E1E"/>
</svg>
