<svg width="71" height="94" viewBox="0 0 71 94" fill="none" xmlns="http://www.w3.org/2000/svg">
<path d="M40.8947 44.9736L40.2193 53.3859C39.155 55.0233 37.7632 56.4356 36.0439 57.6227C34.3246 58.8098 32.3801 59.7309 30.2105 60.3859C28.0409 60.9999 25.7485 61.3069 23.3333 61.3069C19.1988 61.266 15.5965 60.4677 12.5263 58.9122C9.49708 57.3566 7.16374 55.1461 5.52632 52.2806C3.88889 49.4151 3.07018 45.997 3.07018 42.0262C3.07018 38.0145 3.88889 34.5759 5.52632 31.7104C7.16374 28.8449 9.49708 26.6344 12.5263 25.0788C15.5965 23.5233 19.1988 22.7455 23.3333 22.7455C25.8713 22.7455 28.4298 23.073 31.0088 23.728C33.5877 24.3829 35.8187 25.304 37.7018 26.4911L39.0526 35.149H38.5C37.5994 31.3829 35.7778 28.6812 33.0351 27.0438C30.3333 25.4063 27.0789 24.5876 23.2719 24.5876C20.038 24.5876 17.2339 25.304 14.8596 26.7367C12.5263 28.1286 10.7047 30.1344 9.39474 32.7543C8.12573 35.3332 7.49123 38.4239 7.49123 42.0262C7.49123 45.5467 8.12573 48.6169 9.39474 51.2367C10.7047 53.8157 12.5468 55.8215 14.9211 57.2543C17.2953 58.6461 20.0994 59.3625 23.3333 59.4034C26.4035 59.4034 29.1667 58.9122 31.6228 57.9297C34.1199 56.9063 36.1462 55.3303 37.7018 53.2017C39.2573 51.073 40.1374 48.3303 40.3421 44.9736H40.8947Z" fill="white"/>
<path d="M47.218 33.4294C51.2706 33.4294 54.7706 34.1662 57.718 35.6399C60.6654 37.1136 62.9373 39.2422 64.5338 42.0259C66.1303 44.7686 66.9285 48.0434 66.9285 51.8504C66.9285 55.6574 66.1303 58.9323 64.5338 61.675C62.9373 64.4177 60.6654 66.5463 57.718 68.061C54.7706 69.5346 51.2706 70.2715 47.218 70.2715H34.139L34.0162 68.4294C36.8817 68.4294 39.2765 68.4294 41.2005 68.4294C43.1654 68.4294 44.6595 68.4294 45.6829 68.4294C46.7063 68.4294 47.218 68.4294 47.218 68.4294C51.9665 68.4294 55.6917 66.9557 58.3934 64.0083C61.1361 61.02 62.5075 56.9674 62.5075 51.8504C62.5075 46.7335 61.1361 42.7013 58.3934 39.7539C55.6917 36.7656 51.9665 35.2715 47.218 35.2715C47.218 35.2715 46.6858 35.2715 45.6215 35.2715C44.5572 35.2715 43.0016 35.2715 40.9548 35.2715C38.9081 35.2715 36.3905 35.2715 33.4022 35.2715V33.4294H47.218ZM34.9987 33.4294V70.2715H31.0075V33.4294H34.9987ZM31.1303 66.2803V70.2715H26.7092V69.6574C26.7092 69.6574 26.832 69.6574 27.0776 69.6574C27.3642 69.6574 27.5075 69.6574 27.5075 69.6574C28.4899 69.6574 29.3086 69.33 29.9636 68.675C30.6186 67.9791 30.9665 67.1808 31.0075 66.2803H31.1303ZM31.1303 37.4206H31.0075C30.9665 36.4382 30.5981 35.6399 29.9022 35.0259C29.2472 34.3709 28.4285 34.0434 27.4461 34.0434C27.4461 34.0434 27.3233 34.0434 27.0776 34.0434C26.832 34.0434 26.7092 34.0434 26.7092 34.0434V33.4294H31.1303V37.4206Z" fill="white"/>
</svg>
