<svg width="30" height="35" viewBox="0 0 30 35" fill="none" xmlns="http://www.w3.org/2000/svg">
<path d="M15.5922 16.4452L4.32236 0.301883C4.18993 0.108876 3.98246 0 3.76615 0H0.353862C0.0581007 0 -0.10523 0.381065 0.075758 0.638408L11.7914 17.4201L0.075758 34.2019C0.0349994 34.2602 0.00970935 34.3303 0.00277933 34.404C-0.00415069 34.4777 0.00755937 34.5521 0.03657 34.6187C0.0655806 34.6853 0.110721 34.7414 0.166831 34.7806C0.22294 34.8197 0.287754 34.8404 0.353862 34.8403H3.76615C3.98246 34.8403 4.18993 34.7265 4.32236 34.5384L15.5922 18.4C15.9939 17.821 15.9939 17.0193 15.5922 16.4452ZM29.0118 16.4452L17.742 0.301883C17.6096 0.108876 17.4021 0 17.1858 0H13.7735C13.4777 0 13.3144 0.381065 13.4954 0.638408L25.2111 17.4201L13.4954 34.2019C13.4546 34.2602 13.4293 34.3303 13.4224 34.404C13.4155 34.4777 13.4272 34.5521 13.4562 34.6187C13.4852 34.6853 13.5303 34.7414 13.5865 34.7806C13.6426 34.8197 13.7074 34.8404 13.7735 34.8403H17.1858C17.4021 34.8403 17.6096 34.7265 17.742 34.5384L29.0118 18.4C29.4135 17.821 29.4135 17.0193 29.0118 16.4452Z" fill="#14170F"/>
</svg>
