<svg width="181" height="181" viewBox="0 0 181 181" fill="none" xmlns="http://www.w3.org/2000/svg">
<path d="M90.4744 128.592L110.194 143.65L90.5171 172.113L70.8146 143.605C77.2811 138.476 83.9012 133.568 90.4744 128.588M84.3963 14.5174L66.7043 3.06281L65.1165 24.8414L79.6713 29.8126L84.3963 14.5174ZM37.825 45.6373L17.6274 40.491L22.5232 61.7222H37.825V45.6373ZM69.803 61.7222H45.4311V26.5328L77.3152 37.4221C74.9506 45.57 72.3384 53.6326 69.803 61.7222ZM158.362 61.7222L163.257 40.491L143.064 45.6373V61.7222H158.362ZM115.811 24.7785L114.227 3L96.5311 14.4546L101.26 29.7498L115.811 24.7785ZM111.141 61.7177L103.612 37.3548L135.449 26.4835V61.7177C127.348 61.8747 119.243 61.7536 111.141 61.7177ZM138.51 150.254L159.228 148.585L148.331 129.988L133.78 134.959L138.51 150.254ZM158.784 96.2968L178 87.9874L162.169 73.8408L149.791 83.2898L158.784 96.2968ZM123.921 103.045L143.636 87.9874L163.313 116.456L131.429 127.345C128.782 119.296 126.396 111.157 123.921 103.045ZM52.2732 157.765L60.1823 177.964L73.6445 161.318L64.6512 148.311L52.2732 157.765ZM107.36 161.363L120.818 178L128.727 157.805L116.349 148.352L107.36 161.363ZM18.8311 73.8722L3 88.0233L22.2159 96.3327L31.2091 83.3213L18.8311 73.8722ZM32.5963 130.05L21.6994 148.652L42.4177 150.312L47.147 135.022L32.5963 130.05ZM57.0323 103.049L49.4988 127.412L17.6659 116.541L37.3683 88.0323C44.0098 92.9139 50.4976 98.0153 57.0323 103.049Z" stroke="#946246" stroke-width="4.26829" stroke-linecap="round" stroke-linejoin="round"/>
</svg>
