<svg width="55" height="56" viewBox="0 0 55 56" fill="none" xmlns="http://www.w3.org/2000/svg">
<path d="M27.4901 0.210938C25.8137 10.6687 24.405 16.8853 20.5399 20.7504C16.6747 24.6154 10.458 26.024 0 27.7005C10.458 29.3769 16.6747 30.7855 20.5399 34.6622C24.405 38.5272 25.8137 44.7439 27.4901 55.2098C29.1665 44.7439 30.5752 38.5272 34.4403 34.6505C38.3171 30.7855 44.5339 29.3769 55 27.7005C44.5339 26.024 38.3171 24.6154 34.452 20.7504C30.5752 16.8853 29.1665 10.6687 27.4901 0.210938ZM46.9438 8.27048C41.6118 12.1239 37.5138 14.8946 33.8582 16.4429C34.452 17.5373 35.1389 18.4686 35.9305 19.2602C36.7222 20.0519 37.6535 20.7387 38.7595 21.3441C40.3195 17.6886 43.0903 13.5907 46.9438 8.27048ZM8.0667 8.27746C11.9248 13.6024 14.684 17.6886 16.2323 21.3324C17.3267 20.7387 18.258 20.0519 19.0497 19.2602C19.8414 18.4686 20.5282 17.5373 21.122 16.4429C17.478 14.8946 13.3917 12.1355 8.0667 8.27746ZM38.7595 34.0568C37.6535 34.6622 36.7222 35.349 35.9305 36.1407C35.1389 36.9323 34.452 37.8636 33.8466 38.9696C37.5138 40.518 41.6118 43.2887 46.9438 47.1537C43.0787 41.8218 40.3079 37.7239 38.7595 34.0568ZM16.2323 34.0685C14.684 37.7239 11.9132 41.8218 8.05971 47.1537C13.3801 43.3003 17.478 40.5296 21.1336 38.9696C20.5282 37.8636 19.8414 36.9323 19.0497 36.1407C18.258 35.349 17.3267 34.6622 16.2323 34.0685Z" fill="#D2B075"/>
</svg>
