<svg width="26" height="26" viewBox="0 0 26 26" fill="none" xmlns="http://www.w3.org/2000/svg">
<path d="M13.3808 0.380859C20.3503 0.380859 25.9998 6.03041 25.9998 12.9999C25.9998 19.9694 20.3503 25.6189 13.3808 25.6189C11.1507 25.6228 8.9598 25.0326 7.0334 23.9091L0.766786 25.6189L2.47288 19.3498C1.34847 17.4228 0.75783 15.231 0.761738 12.9999C0.761738 6.03041 6.41129 0.380859 13.3808 0.380859ZM9.08021 7.06895L8.82783 7.07905C8.66466 7.09029 8.50522 7.13315 8.3584 7.20524C8.22158 7.28286 8.09664 7.37976 7.9874 7.49295C7.83597 7.63555 7.75016 7.75921 7.65805 7.8791C7.1913 8.48595 6.93999 9.23099 6.94381 9.99657C6.94633 10.6149 7.10786 11.2168 7.36024 11.7796C7.87636 12.9179 8.72562 14.123 9.84619 15.2398C10.1162 15.5086 10.3812 15.7786 10.6664 16.0297C12.0589 17.2556 13.7181 18.1396 15.5121 18.6116L16.2289 18.7214C16.4624 18.734 16.6958 18.7163 16.9305 18.705C17.298 18.6856 17.6567 18.5861 17.9817 18.4135C18.1468 18.3281 18.3081 18.2355 18.465 18.1359C18.465 18.1359 18.5184 18.0997 18.6227 18.0223C18.7931 17.8961 18.8978 17.8065 19.0392 17.6589C19.1452 17.5495 19.2335 17.4225 19.3042 17.2778C19.4026 17.0721 19.501 16.6796 19.5414 16.3528C19.5717 16.1029 19.5629 15.9666 19.5591 15.8821C19.554 15.7471 19.4417 15.607 19.3193 15.5477L18.5849 15.2183C18.5849 15.2183 17.487 14.7401 16.8157 14.4347C16.7454 14.4041 16.6702 14.3866 16.5936 14.383C16.5072 14.3739 16.42 14.3836 16.3377 14.4112C16.2554 14.4389 16.18 14.4839 16.1166 14.5432C16.1103 14.5407 16.0257 14.6126 15.1134 15.718C15.061 15.7884 14.9889 15.8416 14.9062 15.8708C14.8235 15.9 14.7339 15.904 14.649 15.8821C14.5668 15.8602 14.4862 15.8323 14.408 15.7988C14.2515 15.7332 14.1972 15.708 14.09 15.6625C13.3655 15.3469 12.6949 14.9199 12.1025 14.3968C11.9435 14.258 11.7958 14.1066 11.6444 13.9602C11.148 13.4847 10.7153 12.9469 10.3573 12.3601L10.2828 12.2402C10.2301 12.1592 10.187 12.0724 10.1541 11.9815C10.1061 11.796 10.2311 11.6471 10.2311 11.6471C10.2311 11.6471 10.5377 11.3115 10.6803 11.1298C10.8191 10.9531 10.9365 10.7815 11.0122 10.6591C11.1611 10.4193 11.2078 10.1732 11.1295 9.98269C10.7762 9.11955 10.4111 8.26103 10.0342 7.40714C9.95976 7.23805 9.73893 7.11691 9.53828 7.09293C9.47014 7.08452 9.402 7.07779 9.33385 7.07274C9.16442 7.06302 8.99452 7.06471 8.82531 7.07779L9.08021 7.06895Z" fill="#1E1E1E"/>
</svg>
